<svg xmlns="http://www.w3.org/2000/svg" viewBox="0 0 64 64">
  <defs>
    <linearGradient id="bg" x1="0%" y1="0%" x2="100%" y2="100%">
      <stop offset="0%" style="stop-color:#232f3e"/>
      <stop offset="100%" style="stop-color:#37475a"/>
    </linearGradient>
  </defs>
  <rect width="64" height="64" rx="12" fill="url(#bg)"/>
  <path d="M32 14c-1.2 0-2.2.6-2.8 1.5L16.4 36.2c-.4.6-.4 1.4 0 2l2.8 4.6c.6.9 1.6 1.5 2.8 1.5h20c1.2 0 2.2-.6 2.8-1.5l2.8-4.6c.4-.6.4-1.4 0-2L34.8 15.5C34.2 14.6 33.2 14 32 14z" fill="none" stroke="#ff9900" stroke-width="2.5" stroke-linejoin="round"/>
  <path d="M22 44.3c3 2.5 6.2 3.7 10 3.7s7-1.2 10-3.7" stroke="#ff9900" stroke-width="2.5" stroke-linecap="round" fill="none"/>
  <path d="M18 47c4.2 3 8.8 4.5 14 4.5s9.8-1.5 14-4.5" stroke="#ff9900" stroke-width="2" stroke-linecap="round" fill="none" opacity="0.6"/>
  <circle cx="32" cy="30" r="3" fill="#ff9900"/>
  <rect x="30.5" y="33.5" width="3" height="7" rx="1.5" fill="#ff9900"/>
</svg>
